<svg id="Capa_1" data-name="Capa 1" xmlns="http://www.w3.org/2000/svg" viewBox="0 0 581.78 256.7"><defs><style>.cls-1{fill:#fff;}</style></defs><title>apollo_pattern</title><path class="cls-1" d="M579.31,79.66l-.91.06a27.75,27.75,0,0,0-13.87,5.07,26.34,26.34,0,0,0-3.58,3,27.89,27.89,0,0,0,12.8,46.73,28.53,28.53,0,0,0,13.66.06,27.49,27.49,0,0,0,9.43-4.32,28.48,28.48,0,0,0,7.48-7.9,28.07,28.07,0,0,0,4.23-13.06,38,38,0,0,0-.08-4.52,23.34,23.34,0,0,0-1.08-5.28,1.62,1.62,0,0,0-.74-.59,2,2,0,0,0-.47,0,1.35,1.35,0,0,0-1.34,1.32,6.1,6.1,0,0,0,.19,1,25.72,25.72,0,0,1,.22,11.64A25.27,25.27,0,0,1,593,129.45a25.19,25.19,0,0,1-16.42,2.86,24.67,24.67,0,0,1-11.48-5.08,27.48,27.48,0,0,1-4.91-5.18A25,25,0,0,1,556,112a27.47,27.47,0,0,1-.31-6.51A24.67,24.67,0,0,1,558,96.7a23,23,0,0,1,1.73-3.06,25.7,25.7,0,0,1,5.7-6.08,24.85,24.85,0,0,1,8.73-4.31,25.45,25.45,0,0,1,4.71-.78,25,25,0,0,1,17,5c.36.28.74.57.85.67l.18.16-.07.2a3.4,3.4,0,0,0,.69,3.28,3.75,3.75,0,0,0,1.76,1.06,4.25,4.25,0,0,0,1.59,0,3.5,3.5,0,0,0,2.42-2.23,3.4,3.4,0,0,0-.59-3.22,3.45,3.45,0,0,0-3.53-1.14l-.28.07-.4-.33a27.94,27.94,0,0,0-5.66-3.62,27.37,27.37,0,0,0-10.56-2.73c-.74,0-2.48,0-3,0Z" transform="translate(-26.81 -79.63)"/><path class="cls-1" d="M576.42,95.7c-.52,1.34-1.64,4.26-2.5,6.5S571.28,109,570,112.42l-2.38,6.18s1.35,0,3,0h3.07l.18-.5c.1-.28.47-1.24.8-2.15l.62-1.64h4.6a42.33,42.33,0,0,0,4.59-.07c0-.13-.8-2.28-1.2-3.42l-.43-1.22-3.05,0-3,0,2-5.46c1.19-3.27,2-5.42,2-5.37s.81,2.29,1.76,5l3.49,9.89,1.75,5,3,0h3.05s-.39-1.05-.88-2.3-1.53-4-2.32-6-1.68-4.36-2-5.12-.8-2.1-1.13-3l-1.93-5c-.73-1.89-1.37-3.56-1.42-3.7l-.1-.25h-6.75Z" transform="translate(-26.81 -79.63)"/><path class="cls-1" d="M395.42,280.57l-.9.07a27.74,27.74,0,0,0-13.87,5.06,27.08,27.08,0,0,0-3.58,3,27.9,27.9,0,0,0,12.79,46.74,26.53,26.53,0,0,0,6.95.86,26,26,0,0,0,6.72-.81A27.12,27.12,0,0,0,413,331.2a28.41,28.41,0,0,0,7.47-7.89,28,28,0,0,0,4.24-13.07,37.79,37.79,0,0,0-.08-4.51,23.65,23.65,0,0,0-1.08-5.28,1.76,1.76,0,0,0-.74-.6,2,2,0,0,0-.47-.05,1.35,1.35,0,0,0-1.34,1.33,5,5,0,0,0,.19,1,25.76,25.76,0,0,1,.22,11.65,25.23,25.23,0,0,1-12.27,16.56,25.22,25.22,0,0,1-16.41,2.87,24.87,24.87,0,0,1-11.48-5.08A27.24,27.24,0,0,1,376.3,323a25,25,0,0,1-4.22-10,27,27,0,0,1-.31-6.51,24.41,24.41,0,0,1,2.37-8.79,21.79,21.79,0,0,1,1.73-3.06,25.5,25.5,0,0,1,5.69-6.09,25,25,0,0,1,8.74-4.3,23.88,23.88,0,0,1,4.71-.78,24.91,24.91,0,0,1,17,5l.85.66.18.16-.07.21a3.41,3.41,0,0,0,.69,3.28,3.65,3.65,0,0,0,1.76,1,4.25,4.25,0,0,0,1.59,0,3.53,3.53,0,0,0,2.42-2.22,3.41,3.41,0,0,0-.59-3.23,3.45,3.45,0,0,0-3.53-1.14l-.28.08-.4-.34a27.9,27.9,0,0,0-5.66-3.61,27.38,27.38,0,0,0-10.56-2.74c-.74,0-2.48-.05-3,0Z" transform="translate(-26.81 -79.63)"/><path class="cls-1" d="M392.54,296.62c-.52,1.33-1.64,4.26-2.5,6.5s-2.64,6.83-3.94,10.21-2.38,6.16-2.39,6.18,1.36,0,3,0h3.07l.18-.5.8-2.15.62-1.64H396a45.77,45.77,0,0,0,4.59-.06c-.05-.13-.8-2.28-1.2-3.43l-.43-1.22-3.05,0-3,0,2-5.46c1.19-3.28,2-5.43,2-5.38l1.76,5c.95,2.7,2.52,7.15,3.49,9.88l1.75,5h3.05c1.68,0,3.05,0,3.05,0s-.39-1-.88-2.3-1.53-4-2.32-6l-2-5.12-1.13-2.95c-.34-.86-1.2-3.11-1.93-5s-1.37-3.55-1.42-3.69l-.1-.26h-6.75Z" transform="translate(-26.81 -79.63)"/><path class="cls-1" d="M230.6,90.77l-.91.07a27.74,27.74,0,0,0-13.87,5.06,27.08,27.08,0,0,0-3.58,3A27.9,27.9,0,0,0,225,145.67a26.48,26.48,0,0,0,7,.86,25.54,25.54,0,0,0,6.71-.81,27,27,0,0,0,9.43-4.32,28.44,28.44,0,0,0,7.48-7.89,28.07,28.07,0,0,0,4.23-13.07,37.79,37.79,0,0,0-.08-4.51,23.08,23.08,0,0,0-1.08-5.28,1.7,1.7,0,0,0-.74-.6,2,2,0,0,0-.47,0,1.35,1.35,0,0,0-1.34,1.33,5.86,5.86,0,0,0,.19,1,25.76,25.76,0,0,1,.22,11.65,25.28,25.28,0,0,1-12.26,16.56,25.24,25.24,0,0,1-16.41,2.87,24.78,24.78,0,0,1-11.48-5.08,27,27,0,0,1-4.92-5.19,24.79,24.79,0,0,1-4.21-10,27,27,0,0,1-.32-6.51,24.62,24.62,0,0,1,2.37-8.79,21.79,21.79,0,0,1,1.73-3.06,25.74,25.74,0,0,1,5.7-6.09,25,25,0,0,1,8.74-4.3,23.78,23.78,0,0,1,4.7-.78,24.91,24.91,0,0,1,17,5c.37.27.75.57.85.66l.18.16-.07.21a3.41,3.41,0,0,0,.69,3.28,3.65,3.65,0,0,0,1.76,1,4.25,4.25,0,0,0,1.59,0,3.51,3.51,0,0,0,2.42-2.22,3.41,3.41,0,0,0-.59-3.23,3.45,3.45,0,0,0-3.53-1.14l-.28.08-.4-.34a27.9,27.9,0,0,0-5.66-3.61,27.29,27.29,0,0,0-10.56-2.74c-.74,0-2.48,0-3,0Z" transform="translate(-26.81 -79.63)"/><path class="cls-1" d="M227.71,106.82c-.52,1.33-1.64,4.26-2.5,6.5s-2.64,6.83-3.94,10.21l-2.38,6.18s1.35,0,3,0H225l.18-.5c.11-.27.47-1.24.8-2.15l.62-1.64h4.6a45.57,45.57,0,0,0,4.59-.06c-.05-.13-.8-2.28-1.2-3.43l-.43-1.22-3.05,0-3,0,2-5.46c1.19-3.28,2-5.43,2-5.38l1.76,5c.95,2.7,2.52,7.15,3.49,9.88l1.75,5h3c1.68,0,3.05,0,3.05,0s-.39-1-.88-2.3-1.53-4-2.32-6-1.68-4.35-2-5.12-.81-2.09-1.14-3l-1.93-5c-.73-1.89-1.37-3.55-1.42-3.69l-.09-.26h-6.76Z" transform="translate(-26.81 -79.63)"/><path class="cls-1" d="M53.32,280.57l-.9.07a27.74,27.74,0,0,0-13.88,5.06,27.08,27.08,0,0,0-3.58,3,27.91,27.91,0,0,0-7.46,25.95,28.22,28.22,0,0,0,5.18,10.9,27.94,27.94,0,0,0,15.08,9.89,26.48,26.48,0,0,0,7,.86,26,26,0,0,0,6.71-.81,27,27,0,0,0,9.43-4.32,27.85,27.85,0,0,0,11.71-21,37.79,37.79,0,0,0-.08-4.51,23.08,23.08,0,0,0-1.08-5.28,1.7,1.7,0,0,0-.74-.6,1.89,1.89,0,0,0-.46-.05,1.35,1.35,0,0,0-1.35,1.33,5.86,5.86,0,0,0,.19,1,25.62,25.62,0,0,1,.22,11.65A25.28,25.28,0,0,1,67,330.36a25.24,25.24,0,0,1-16.41,2.87,24.78,24.78,0,0,1-11.48-5.08A27,27,0,0,1,34.19,323a24.79,24.79,0,0,1-4.21-10,27,27,0,0,1-.32-6.51A24.62,24.62,0,0,1,32,297.62a20.86,20.86,0,0,1,1.74-3.06,25.5,25.5,0,0,1,5.69-6.09,25,25,0,0,1,8.74-4.3,23.78,23.78,0,0,1,4.7-.78,25,25,0,0,1,17,5c.36.27.74.57.84.66l.18.16-.07.21a3.44,3.44,0,0,0,.69,3.28,3.65,3.65,0,0,0,1.76,1,4.25,4.25,0,0,0,1.59,0,3.51,3.51,0,0,0,2.42-2.22,3.41,3.41,0,0,0-.59-3.23,3.45,3.45,0,0,0-3.53-1.14l-.28.08-.4-.34a27.63,27.63,0,0,0-5.66-3.61,27.29,27.29,0,0,0-10.56-2.74c-.74,0-2.48-.05-3,0Z" transform="translate(-26.81 -79.63)"/><path class="cls-1" d="M50.43,296.62c-.52,1.33-1.64,4.26-2.5,6.5S45.3,310,44,313.33s-2.37,6.16-2.38,6.18,1.35,0,3,0h3.06l.18-.5c.11-.27.47-1.24.8-2.15l.62-1.64h4.6a45.57,45.57,0,0,0,4.59-.06c0-.13-.8-2.28-1.2-3.43l-.43-1.22-3,0-3,0,2-5.46c1.19-3.28,2-5.43,2-5.38l1.76,5c.95,2.7,2.52,7.15,3.49,9.88l1.75,5h3c1.68,0,3.06,0,3.06,0s-.4-1-.89-2.3-1.53-4-2.32-6-1.68-4.35-2-5.12-.81-2.09-1.14-2.95-1.19-3.11-1.93-5-1.37-3.55-1.42-3.69l-.09-.26H51.36Z" transform="translate(-26.81 -79.63)"/></svg>