<?xml version="1.0" encoding="utf-8"?>
<!-- Generator: Adobe Illustrator 24.0.0, SVG Export Plug-In . SVG Version: 6.00 Build 0)  -->
<svg version="1.1" id="Capa_1" xmlns:fi="http://pattern.flaticon.com/"
	 xmlns="http://www.w3.org/2000/svg" xmlns:xlink="http://www.w3.org/1999/xlink" x="0px" y="0px" viewBox="0 0 700 350"
	 style="enable-background:new 0 0 700 350;" xml:space="preserve">
<style type="text/css">
	.st0{fill:#F2F2F2;}
</style>
<g>
	<path class="st0" d="M639.6,63.5c-0.1,0-0.5,0-0.9,0.1c-4.9,0.4-9.8,2.2-13.9,5.1c-1.3,1-2.4,1.9-3.6,3c-6.8,6.8-9.6,16.5-7.5,25.9
		c0.9,3.9,2.7,7.8,5.2,10.9c3.9,4.9,9.1,8.4,15.1,9.9c2.4,0.6,4.4,0.9,6.9,0.9c2.5,0,4.3-0.2,6.7-0.8c3.4-0.8,6.4-2.2,9.4-4.3
		c2.9-2,5.6-4.8,7.5-7.9c2.5-3.9,3.9-8.3,4.2-13.1c0.1-1,0-3.5-0.1-4.5c-0.2-2-0.8-4.7-1.1-5.3c-0.1-0.2-0.5-0.5-0.7-0.6
		c-0.1,0-0.3-0.1-0.5-0.1c-0.7,0-1.3,0.6-1.3,1.3c0,0.2,0.1,0.6,0.2,1c1,3.8,1,7.9,0.2,11.6c-1.1,4.8-3.4,9.1-6.9,12.6
		c-1.7,1.6-3.2,2.8-5.3,4c-4.8,2.8-10.8,3.8-16.4,2.9c-4.3-0.7-8-2.3-11.5-5.1c-1.7-1.3-3.7-3.4-4.9-5.2c-2.2-3.1-3.5-6.3-4.2-10
		c-0.4-1.9-0.5-4.4-0.3-6.5c0.3-3.1,1-6,2.4-8.8c0.6-1.3,1-2,1.7-3.1c1.5-2.3,3.5-4.4,5.7-6.1c2.6-2,5.6-3.5,8.7-4.3
		c1.7-0.4,3-0.7,4.7-0.8c6.1-0.4,12.1,1.3,17,5c0.4,0.3,0.7,0.6,0.8,0.7l0.2,0.2l-0.1,0.2c-0.4,1.1-0.1,2.4,0.7,3.3
		c0.4,0.5,1.1,0.9,1.8,1.1c0.4,0.1,1.2,0.1,1.6,0c1.1-0.3,2.1-1.2,2.4-2.2c0.4-1.2,0.2-2.3-0.6-3.2c-0.8-1-2.2-1.5-3.5-1.1l-0.3,0.1
		l-0.4-0.3c-1.6-1.4-3.6-2.6-5.7-3.6c-3.4-1.6-6.7-2.5-10.6-2.7C641.8,63.5,640.1,63.5,639.6,63.5L639.6,63.5z"/>
	<path class="st0" d="M636.7,79.5c-0.5,1.3-1.6,4.3-2.5,6.5s-2.6,6.8-3.9,10.2c-1.3,3.4-2.4,6.2-2.4,6.2c0,0,1.4,0,3,0h3.1l0.2-0.5
		c0.1-0.3,0.5-1.2,0.8-2.1l0.6-1.6h4.6c3.7,0,4.6,0,4.6-0.1c0-0.1-0.8-2.3-1.2-3.4l-0.4-1.2l-3,0l-3,0l2-5.5c1.2-3.3,2-5.4,2-5.4
		c0,0,0.8,2.3,1.8,5c1,2.7,2.5,7.1,3.5,9.9l1.8,5l3.1,0c1.7,0,3.1,0,3.1,0c0,0-0.4-1-0.9-2.3c-0.5-1.3-1.5-4-2.3-6
		c-0.8-2.1-1.7-4.4-2-5.1c-0.3-0.8-0.8-2.1-1.1-3c-0.3-0.9-1.2-3.1-1.9-5c-0.7-1.9-1.4-3.6-1.4-3.7l-0.1-0.3h-6.8L636.7,79.5z"/>
</g>
<g>
	<path class="st0" d="M455.8,264.4c-0.1,0-0.5,0-0.9,0.1c-4.9,0.4-9.8,2.2-13.9,5.1c-1.3,1-2.4,1.9-3.6,3
		c-6.8,6.8-9.6,16.5-7.5,25.9c0.9,3.9,2.7,7.8,5.2,10.9c3.9,4.9,9.1,8.4,15.1,9.9c2.4,0.6,4.4,0.9,6.9,0.9c2.5,0,4.3-0.2,6.7-0.8
		c3.4-0.8,6.4-2.2,9.4-4.3c2.9-2,5.6-4.8,7.5-7.9c2.5-3.9,3.9-8.3,4.2-13.1c0.1-1,0-3.5-0.1-4.5c-0.2-2-0.8-4.7-1.1-5.3
		c-0.1-0.2-0.5-0.5-0.7-0.6c-0.1,0-0.3-0.1-0.5-0.1c-0.7,0-1.3,0.6-1.3,1.3c0,0.2,0.1,0.6,0.2,1c1,3.8,1,7.9,0.2,11.6
		c-1.1,4.8-3.4,9.1-6.9,12.6c-1.7,1.6-3.2,2.8-5.3,4c-4.8,2.8-10.8,3.8-16.4,2.9c-4.3-0.7-8-2.3-11.5-5.1c-1.7-1.3-3.7-3.4-4.9-5.2
		c-2.2-3.1-3.5-6.3-4.2-10c-0.4-1.9-0.5-4.4-0.3-6.5c0.3-3.1,1-6,2.4-8.8c0.6-1.3,1-2,1.7-3.1c1.5-2.3,3.5-4.4,5.7-6.1
		c2.6-2,5.6-3.5,8.7-4.3c1.7-0.4,3-0.7,4.7-0.8c6.1-0.4,12.1,1.3,17,5c0.4,0.3,0.7,0.6,0.8,0.7l0.2,0.2l-0.1,0.2
		c-0.4,1.1-0.1,2.4,0.7,3.3c0.4,0.5,1.1,0.9,1.8,1.1c0.4,0.1,1.2,0.1,1.6,0c1.1-0.3,2.1-1.2,2.4-2.2c0.4-1.2,0.2-2.3-0.6-3.2
		c-0.8-1-2.2-1.5-3.5-1.1l-0.3,0.1l-0.4-0.3c-1.6-1.4-3.6-2.6-5.7-3.6c-3.4-1.6-6.7-2.5-10.6-2.7C458,264.4,456.2,264.4,455.8,264.4
		L455.8,264.4z"/>
	<path class="st0" d="M452.9,280.5c-0.5,1.3-1.6,4.3-2.5,6.5c-0.9,2.2-2.6,6.8-3.9,10.2c-1.3,3.4-2.4,6.2-2.4,6.2c0,0,1.4,0,3,0h3.1
		l0.2-0.5c0.1-0.3,0.5-1.2,0.8-2.1l0.6-1.6h4.6c3.7,0,4.6,0,4.6-0.1c0-0.1-0.8-2.3-1.2-3.4l-0.4-1.2l-3,0l-3,0l2-5.5
		c1.2-3.3,2-5.4,2-5.4c0,0,0.8,2.3,1.8,5c1,2.7,2.5,7.1,3.5,9.9l1.8,5l3.1,0c1.7,0,3.1,0,3.1,0c0,0-0.4-1-0.9-2.3
		c-0.5-1.3-1.5-4-2.3-6c-0.8-2.1-1.7-4.4-2-5.1c-0.3-0.8-0.8-2.1-1.1-3c-0.3-0.9-1.2-3.1-1.9-5c-0.7-1.9-1.4-3.6-1.4-3.7l-0.1-0.3
		h-6.8L452.9,280.5z"/>
</g>
<g>
	<path class="st0" d="M290.9,74.6c-0.1,0-0.5,0-0.9,0.1c-4.9,0.4-9.8,2.2-13.9,5.1c-1.3,1-2.4,1.9-3.6,3c-6.8,6.8-9.6,16.5-7.5,25.9
		c0.9,3.9,2.7,7.8,5.2,10.9c3.9,4.9,9.1,8.4,15.1,9.9c2.4,0.6,4.4,0.9,6.9,0.9c2.5,0,4.3-0.2,6.7-0.8c3.4-0.8,6.4-2.2,9.4-4.3
		c2.9-2,5.6-4.8,7.5-7.9c2.5-3.9,3.9-8.3,4.2-13.1c0.1-1,0-3.5-0.1-4.5c-0.2-2-0.8-4.7-1.1-5.3c-0.1-0.2-0.5-0.5-0.7-0.6
		c-0.1,0-0.3-0.1-0.5-0.1c-0.7,0-1.3,0.6-1.3,1.3c0,0.2,0.1,0.6,0.2,1c1,3.8,1,7.9,0.2,11.6c-1.1,4.8-3.4,9.1-6.9,12.6
		c-1.7,1.6-3.2,2.8-5.3,4c-4.8,2.8-10.8,3.8-16.4,2.9c-4.3-0.7-8-2.3-11.5-5.1c-1.7-1.3-3.7-3.4-4.9-5.2c-2.2-3.1-3.5-6.3-4.2-10
		c-0.4-1.9-0.5-4.4-0.3-6.5c0.3-3.1,1-6,2.4-8.8c0.6-1.3,1-2,1.7-3.1c1.5-2.3,3.5-4.4,5.7-6.1c2.6-2,5.6-3.5,8.7-4.3
		c1.7-0.4,3-0.7,4.7-0.8c6.1-0.4,12.1,1.3,17,5c0.4,0.3,0.7,0.6,0.8,0.7l0.2,0.2l-0.1,0.2c-0.4,1.1-0.1,2.4,0.7,3.3
		c0.4,0.5,1.1,0.9,1.8,1.1c0.4,0.1,1.2,0.1,1.6,0c1.1-0.3,2.1-1.2,2.4-2.2c0.4-1.2,0.2-2.3-0.6-3.2c-0.8-1-2.2-1.5-3.5-1.1l-0.3,0.1
		l-0.4-0.3c-1.6-1.4-3.6-2.6-5.7-3.6c-3.4-1.6-6.7-2.5-10.6-2.7C293.1,74.6,291.4,74.6,290.9,74.6L290.9,74.6z"/>
	<path class="st0" d="M288,90.7c-0.5,1.3-1.6,4.3-2.5,6.5c-0.9,2.2-2.6,6.8-3.9,10.2c-1.3,3.4-2.4,6.2-2.4,6.2c0,0,1.4,0,3,0h3.1
		l0.2-0.5c0.1-0.3,0.5-1.2,0.8-2.1l0.6-1.6h4.6c3.7,0,4.6,0,4.6-0.1c0-0.1-0.8-2.3-1.2-3.4l-0.4-1.2l-3,0l-3,0l2-5.5
		c1.2-3.3,2-5.4,2-5.4c0,0,0.8,2.3,1.8,5c1,2.7,2.5,7.1,3.5,9.9l1.8,5l3.1,0c1.7,0,3.1,0,3.1,0c0,0-0.4-1-0.9-2.3
		c-0.5-1.3-1.5-4-2.3-6c-0.8-2.1-1.7-4.4-2-5.1c-0.3-0.8-0.8-2.1-1.1-3s-1.2-3.1-1.9-5c-0.7-1.9-1.4-3.6-1.4-3.7l-0.1-0.3H289
		L288,90.7z"/>
</g>
<g>
	<g>
		<path class="st0" d="M113.6,264.4c-0.1,0-0.5,0-0.9,0.1c-4.9,0.4-9.8,2.2-13.9,5.1c-1.3,1-2.4,1.9-3.6,3
			c-6.8,6.8-9.6,16.5-7.5,25.9c0.9,3.9,2.7,7.8,5.2,10.9c3.9,4.9,9.1,8.4,15.1,9.9c2.4,0.6,4.4,0.9,6.9,0.9c2.5,0,4.3-0.2,6.7-0.8
			c3.4-0.8,6.4-2.2,9.4-4.3c2.9-2,5.6-4.8,7.5-7.9c2.5-3.9,3.9-8.3,4.2-13.1c0.1-1,0-3.5-0.1-4.5c-0.2-2-0.8-4.7-1.1-5.3
			c-0.1-0.2-0.5-0.5-0.7-0.6c-0.1,0-0.3-0.1-0.5-0.1c-0.7,0-1.3,0.6-1.3,1.3c0,0.2,0.1,0.6,0.2,1c1,3.8,1,7.9,0.2,11.6
			c-1.1,4.8-3.4,9.1-6.9,12.6c-1.7,1.6-3.2,2.8-5.3,4c-4.8,2.8-10.8,3.8-16.4,2.9c-4.3-0.7-8-2.3-11.5-5.1c-1.7-1.3-3.7-3.4-4.9-5.2
			c-2.2-3.1-3.5-6.3-4.2-10c-0.4-1.9-0.5-4.4-0.3-6.5c0.3-3.1,1-6,2.4-8.8c0.6-1.3,1-2,1.7-3.1c1.5-2.3,3.5-4.4,5.7-6.1
			c2.6-2,5.6-3.5,8.7-4.3c1.7-0.4,3-0.7,4.7-0.8c6.1-0.4,12.1,1.3,17,5c0.4,0.3,0.7,0.6,0.8,0.7l0.2,0.2l-0.1,0.2
			c-0.4,1.1-0.1,2.4,0.7,3.3c0.4,0.5,1.1,0.9,1.8,1.1c0.4,0.1,1.2,0.1,1.6,0c1.1-0.3,2.1-1.2,2.4-2.2c0.4-1.2,0.2-2.3-0.6-3.2
			c-0.8-1-2.2-1.5-3.5-1.1l-0.3,0.1l-0.4-0.3c-1.6-1.4-3.6-2.6-5.7-3.6c-3.4-1.6-6.7-2.5-10.6-2.7
			C115.9,264.4,114.1,264.4,113.6,264.4L113.6,264.4z"/>
		<path class="st0" d="M110.8,280.5c-0.5,1.3-1.6,4.3-2.5,6.5c-0.9,2.2-2.6,6.8-3.9,10.2c-1.3,3.4-2.4,6.2-2.4,6.2c0,0,1.4,0,3,0
			h3.1l0.2-0.5c0.1-0.3,0.5-1.2,0.8-2.1l0.6-1.6h4.6c3.7,0,4.6,0,4.6-0.1c0-0.1-0.8-2.3-1.2-3.4l-0.4-1.2l-3,0l-3,0l2-5.5
			c1.2-3.3,2-5.4,2-5.4c0,0,0.8,2.3,1.8,5c1,2.7,2.5,7.1,3.5,9.9l1.8,5l3.1,0c1.7,0,3.1,0,3.1,0c0,0-0.4-1-0.9-2.3
			c-0.5-1.3-1.5-4-2.3-6c-0.8-2.1-1.7-4.4-2-5.1c-0.3-0.8-0.8-2.1-1.1-3c-0.3-0.9-1.2-3.1-1.9-5c-0.7-1.9-1.4-3.6-1.4-3.7l-0.1-0.3
			h-6.8L110.8,280.5z"/>
	</g>
</g>
</svg>
